<svg width="1024" height="1024" viewBox="0 0 1024 1024" fill="none" xmlns="http://www.w3.org/2000/svg">
  <defs>
    <linearGradient id="base" x1="512" y1="72" x2="512" y2="936" gradientUnits="userSpaceOnUse">
      <stop stop-color="#FBFDFF"/>
      <stop offset="1" stop-color="#E8EEF6"/>
    </linearGradient>
    <filter id="shadow" x="20" y="20" width="984" height="984" filterUnits="userSpaceOnUse" color-interpolation-filters="sRGB">
      <feDropShadow dx="0" dy="26" stdDeviation="28" flood-color="#0F172A" flood-opacity=".24"/>
    </filter>
  </defs>
  <rect x="88" y="72" width="848" height="864" rx="210" fill="url(#base)" filter="url(#shadow)"/>
  <rect x="166" y="150" width="692" height="708" rx="154" fill="#E2F4FF" fill-opacity=".58"/>
  <g opacity=".72">
    <rect x="278" y="224" width="428" height="386" rx="50" fill="white" fill-opacity=".48" stroke="#94A3B8" stroke-opacity=".36" stroke-width="4"/>
    <path d="M658 224L706 272H658V224Z" fill="#DBEAFE" fill-opacity=".72"/>
    <rect x="342" y="336" width="260" height="14" rx="7" fill="#64748B" fill-opacity=".48"/>
    <rect x="342" y="396" width="210" height="14" rx="7" fill="#64748B" fill-opacity=".48"/>
    <rect x="342" y="456" width="300" height="14" rx="7" fill="#64748B" fill-opacity=".48"/>
    <rect x="316" y="262" width="428" height="386" rx="50" fill="white" fill-opacity=".62" stroke="#94A3B8" stroke-opacity=".42" stroke-width="4"/>
    <path d="M696 262L744 310H696V262Z" fill="#DBEAFE"/>
    <rect x="380" y="374" width="260" height="14" rx="7" fill="#64748B" fill-opacity=".58"/>
    <rect x="380" y="434" width="210" height="14" rx="7" fill="#64748B" fill-opacity=".58"/>
    <rect x="380" y="494" width="300" height="14" rx="7" fill="#64748B" fill-opacity=".58"/>
  </g>
  <path d="M388 302V716" stroke="#0F172A" stroke-width="56" stroke-linecap="round"/>
  <path d="M388 472H456C488 472 488 382 604 382" stroke="#0F172A" stroke-width="56" stroke-linecap="round" stroke-linejoin="round"/>
  <path d="M595 382H720" stroke="#2563EB" stroke-width="56" stroke-linecap="round"/>
  <path d="M720 382L650 326V438L720 382Z" fill="#2563EB"/>
  <path d="M328 640L272 688L328 736" stroke="#06B6D4" stroke-width="40" stroke-linecap="round" stroke-linejoin="round"/>
  <path d="M572 640L628 688L572 736" stroke="#06B6D4" stroke-width="40" stroke-linecap="round" stroke-linejoin="round"/>
  <path d="M456 632L420 744" stroke="#64748B" stroke-width="34" stroke-linecap="round"/>
  <circle cx="388" cy="302" r="72" fill="#10B981" stroke="white" stroke-width="14"/>
  <circle cx="388" cy="472" r="58" fill="#2563EB" stroke="white" stroke-width="14"/>
  <circle cx="388" cy="716" r="72" fill="#0F172A" stroke="white" stroke-width="14"/>
  <circle cx="604" cy="382" r="58" fill="#06B6D4" stroke="white" stroke-width="14"/>
  <circle cx="377.5" cy="292.5" r="12.5" fill="white" fill-opacity=".66"/>
  <circle cx="378.5" cy="707.5" r="12.5" fill="white" fill-opacity=".58"/>
  <rect x="88" y="72" width="848" height="864" rx="210" stroke="white" stroke-opacity=".62" stroke-width="10"/>
  <rect x="98" y="82" width="828" height="844" rx="200" stroke="#0F172A" stroke-opacity=".15" stroke-width="4"/>
</svg>
