<svg xmlns="http://www.w3.org/2000/svg" viewBox="0 0 1180 820" role="img" aria-labelledby="title desc">
  <title id="title">Git-Ingest desktop app preview</title>
  <desc id="desc">A desktop app window showing a project scan, rules, preview, and export workflow.</desc>
  <defs>
    <linearGradient id="chrome" x1="0" y1="0" x2="1" y2="1">
      <stop offset="0" stop-color="#ffffff"/>
      <stop offset="1" stop-color="#eef6fb"/>
    </linearGradient>
    <linearGradient id="accent" x1="150" y1="132" x2="1040" y2="716" gradientUnits="userSpaceOnUse">
      <stop offset="0" stop-color="#ff7a45"/>
      <stop offset=".48" stop-color="#2563eb"/>
      <stop offset="1" stop-color="#10b981"/>
    </linearGradient>
    <filter id="shadow" x="14" y="20" width="1152" height="760" color-interpolation-filters="sRGB" filterUnits="userSpaceOnUse">
      <feDropShadow dx="0" dy="30" stdDeviation="32" flood-color="#0f172a" flood-opacity=".16"/>
      <feDropShadow dx="0" dy="8" stdDeviation="10" flood-color="#0f172a" flood-opacity=".08"/>
    </filter>
  </defs>
  <rect width="1180" height="820" rx="46" fill="#f6f8fb"/>
  <g filter="url(#shadow)">
    <rect x="74" y="70" width="1032" height="674" rx="38" fill="url(#chrome)" stroke="#d8e2ee"/>
    <rect x="74" y="70" width="1032" height="70" rx="38" fill="#ffffff"/>
    <path d="M74 140h1032" stroke="#dbe3ee"/>
    <circle cx="116" cy="105" r="10" fill="#ff6b57"/>
    <circle cx="148" cy="105" r="10" fill="#ffbf3f"/>
    <circle cx="180" cy="105" r="10" fill="#27c46b"/>
    <rect x="230" y="91" width="218" height="28" rx="14" fill="#edf3f8"/>
    <rect x="870" y="91" width="176" height="28" rx="14" fill="#0f172a"/>
    <text x="907" y="110" fill="#ffffff" font-family="ui-sans-serif, -apple-system, BlinkMacSystemFont, Segoe UI, sans-serif" font-size="15" font-weight="700">Generate</text>
    <rect x="106" y="170" width="236" height="532" rx="26" fill="#ffffff" stroke="#dde6ef"/>
    <rect x="132" y="202" width="92" height="18" rx="9" fill="#0f172a"/>
    <rect x="132" y="242" width="168" height="14" rx="7" fill="#94a3b8"/>
    <rect x="132" y="272" width="132" height="14" rx="7" fill="#cbd5e1"/>
    <rect x="132" y="326" width="178" height="52" rx="16" fill="#eff6ff" stroke="#bfdbfe"/>
    <circle cx="158" cy="352" r="8" fill="#2563eb"/>
    <rect x="178" y="342" width="90" height="12" rx="6" fill="#1d4ed8"/>
    <rect x="132" y="394" width="178" height="52" rx="16" fill="#f7fee7" stroke="#bbf7d0"/>
    <circle cx="158" cy="420" r="8" fill="#10b981"/>
    <rect x="178" y="410" width="110" height="12" rx="6" fill="#047857"/>
    <rect x="132" y="462" width="178" height="52" rx="16" fill="#fff7ed" stroke="#fed7aa"/>
    <circle cx="158" cy="488" r="8" fill="#ff7a45"/>
    <rect x="178" y="478" width="98" height="12" rx="6" fill="#c2410c"/>
    <rect x="132" y="590" width="178" height="70" rx="18" fill="#0f172a"/>
    <rect x="154" y="614" width="82" height="10" rx="5" fill="#cbd5e1"/>
    <rect x="154" y="636" width="122" height="10" rx="5" fill="#67e8f9"/>
    <rect x="374" y="170" width="690" height="132" rx="28" fill="#ffffff" stroke="#dde6ef"/>
    <text x="408" y="224" fill="#0f172a" font-family="ui-sans-serif, -apple-system, BlinkMacSystemFont, Segoe UI, sans-serif" font-size="34" font-weight="800">desktop-app</text>
    <text x="408" y="260" fill="#64748b" font-family="ui-sans-serif, -apple-system, BlinkMacSystemFont, Segoe UI, sans-serif" font-size="18">214 files scanned · 82 included · 4 warnings · markdown output</text>
    <rect x="866" y="210" width="154" height="48" rx="16" fill="url(#accent)"/>
    <text x="908" y="241" fill="#ffffff" font-family="ui-sans-serif, -apple-system, BlinkMacSystemFont, Segoe UI, sans-serif" font-size="17" font-weight="800">Preview</text>
    <rect x="374" y="326" width="318" height="376" rx="28" fill="#ffffff" stroke="#dde6ef"/>
    <text x="408" y="378" fill="#0f172a" font-family="ui-sans-serif, -apple-system, BlinkMacSystemFont, Segoe UI, sans-serif" font-size="22" font-weight="800">Bundle rules</text>
    <rect x="408" y="412" width="216" height="14" rx="7" fill="#94a3b8"/>
    <rect x="408" y="456" width="238" height="42" rx="14" fill="#f8fafc" stroke="#dbe3ee"/>
    <rect x="432" y="472" width="112" height="10" rx="5" fill="#475569"/>
    <rect x="408" y="518" width="238" height="42" rx="14" fill="#f8fafc" stroke="#dbe3ee"/>
    <rect x="432" y="534" width="152" height="10" rx="5" fill="#475569"/>
    <rect x="408" y="580" width="238" height="42" rx="14" fill="#f8fafc" stroke="#dbe3ee"/>
    <rect x="432" y="596" width="132" height="10" rx="5" fill="#475569"/>
    <rect x="724" y="326" width="340" height="376" rx="28" fill="#0f172a"/>
    <text x="758" y="378" fill="#e0f2fe" font-family="ui-monospace, SFMono-Regular, Menlo, monospace" font-size="18" font-weight="700">git-ingest.md</text>
    <rect x="758" y="418" width="238" height="10" rx="5" fill="#67e8f9"/>
    <rect x="758" y="448" width="198" height="10" rx="5" fill="#dbeafe"/>
    <rect x="758" y="478" width="258" height="10" rx="5" fill="#94a3b8"/>
    <rect x="758" y="530" width="154" height="10" rx="5" fill="#86efac"/>
    <rect x="758" y="560" width="240" height="10" rx="5" fill="#dbeafe"/>
    <rect x="758" y="590" width="184" height="10" rx="5" fill="#94a3b8"/>
    <rect x="758" y="644" width="126" height="34" rx="12" fill="#ffffff"/>
    <text x="783" y="667" fill="#0f172a" font-family="ui-sans-serif, -apple-system, BlinkMacSystemFont, Segoe UI, sans-serif" font-size="15" font-weight="800">Copy</text>
  </g>
</svg>
